<svg width="13" height="9" viewBox="0 0 13 9" fill="none" xmlns="http://www.w3.org/2000/svg">
<path d="M6.10386 6.4615C6.76484 6.4615 7.32622 6.23016 7.78803 5.76748C8.24983 5.30479 8.48073 4.74297 8.48073 4.08199C8.48073 3.42102 8.24939 2.85963 7.78671 2.39783C7.32402 1.93603 6.7622 1.70512 6.10122 1.70512C5.44025 1.70512 4.87886 1.93647 4.41706 2.39915C3.95526 2.86183 3.72435 3.42366 3.72435 4.08463C3.72435 4.74561 3.95569 5.30699 4.41838 5.7688C4.88106 6.2306 5.44289 6.4615 6.10386 6.4615V6.4615M6.10254 5.65831C5.66504 5.65831 5.29317 5.50519 4.98692 5.19894C4.68067 4.89269 4.52754 4.52081 4.52754 4.08331C4.52754 3.64581 4.68067 3.27394 4.98692 2.96769C5.29317 2.66144 5.66504 2.50831 6.10254 2.50831C6.54004 2.50831 6.91192 2.66144 7.21817 2.96769C7.52442 3.27394 7.67754 3.64581 7.67754 4.08331C7.67754 4.52081 7.52442 4.89269 7.21817 5.19894C6.91192 5.50519 6.54004 5.65831 6.10254 5.65831V5.65831M6.10334 8.16662C4.7619 8.16662 3.53962 7.79662 2.43653 7.05661C1.33344 6.31661 0.52126 5.32551 0 4.08331C0.52126 2.84112 1.33317 1.85002 2.43573 1.11001C3.53829 0.370003 4.76029 0 6.10174 0C7.44319 0 8.66546 0.370003 9.76855 1.11001C10.8716 1.85002 11.6838 2.84112 12.2051 4.08331C11.6838 5.32551 10.8719 6.31661 9.76935 7.05661C8.66679 7.79662 7.44479 8.16662 6.10334 8.16662V8.16662M6.10254 4.08331V4.08331V4.08331V4.08331V4.08331V4.08331V4.08331V4.08331V4.08331V4.08331M6.10254 7.29165C7.20115 7.29165 8.20983 7.00241 9.12858 6.42394C10.0473 5.84546 10.7498 5.06526 11.2359 4.08331C10.7498 3.10137 10.0473 2.32116 9.12858 1.74269C8.20983 1.16421 7.20115 0.874979 6.10254 0.874979C5.00393 0.874979 3.99525 1.16421 3.0765 1.74269C2.15775 2.32116 1.45532 3.10137 0.969208 4.08331C1.45532 5.06526 2.15775 5.84546 3.0765 6.42394C3.99525 7.00241 5.00393 7.29165 6.10254 7.29165V7.29165" fill="#7F7663"/>
</svg>
